<?xml version="1.0" standalone="no"?>
<!DOCTYPE svg PUBLIC "-//W3C//DTD SVG 1.1//EN"
"http://www.w3.org/Graphics/SVG/1.1/DTD/svg11.dtd">

<svg width="651" height="447" view_box="0 0 651 447"
xmlns="http://www.w3.org/2000/svg"
xmlns:link="http://www.w3.org/1999/xlink">\n\n<desc>Généré par Mocodo 2.3.7 le Wed, 24 Nov 2021 06:34:09</desc>

<rect id="frame" x="0" y="0" width="651" height="447" fill="#ffffbf" stroke="none" stroke-width="0"/>

<!-- Association NEEDS -->
<line x1="337" y1="152" x2="209" y2="152" stroke="#66bd63" stroke-width="2"/>
<text x="266" y="169.0" fill="#d73027" font-family="Verdana" font-size="12">1,N</text>
<line x1="209" y1="261" x2="209" y2="152" stroke="#66bd63" stroke-width="2"/>
<text x="214.0" y="194" fill="#d73027" font-family="Verdana" font-size="12">1,1</text>
<g id="association-NEEDS">
	<path d="M 224 127 a 14 14 90 0 1 14 14 V 152 h -58 V 141 a 14 14 90 0 1 14 -14" fill="#a6d96a" stroke="#a6d96a" stroke-width="0"/>
	<path d="M 238 152.0 v 11 a 14 14 90 0 1 -14 14 H 194 a 14 14 90 0 1 -14 -14 V 152.0 H 58" fill="#d9ef8b" stroke="#d9ef8b" stroke-width="0"/>
	<rect x="180" y="127" width="58" height="50" fill="none" rx="14" stroke="#66bd63" stroke-width="2"/>
	<line x1="180" y1="152" x2="238" y2="152" stroke="#66bd63" stroke-width="1"/>
	<text x="187" y="144.7" fill="#000000" font-family="Verdana" font-size="12">NEEDS</text>
</g>

<!-- Association BELONGS TO -->
<line x1="594" y1="387" x2="594" y2="261" stroke="#66bd63" stroke-width="2"/>
<text x="599.0" y="345" fill="#d73027" font-family="Verdana" font-size="12">N,N</text>
<line x1="463" y1="261" x2="594" y2="261" stroke="#66bd63" stroke-width="2"/>
<text x="518" y="278.0" fill="#d73027" font-family="Verdana" font-size="12">1,1</text>
<g id="association-BELONGS TO">
	<path d="M 628 236 a 14 14 90 0 1 14 14 V 261 h -96 V 250 a 14 14 90 0 1 14 -14" fill="#a6d96a" stroke="#a6d96a" stroke-width="0"/>
	<path d="M 642 261.0 v 11 a 14 14 90 0 1 -14 14 H 560 a 14 14 90 0 1 -14 -14 V 261.0 H 96" fill="#d9ef8b" stroke="#d9ef8b" stroke-width="0"/>
	<rect x="546" y="236" width="96" height="50" fill="none" rx="14" stroke="#66bd63" stroke-width="2"/>
	<line x1="546" y1="261" x2="642" y2="261" stroke="#66bd63" stroke-width="1"/>
	<text x="553" y="253.7" fill="#000000" font-family="Verdana" font-size="12">BELONGS TO</text>
</g>

<!-- Association OCCURS IN -->
<line x1="463" y1="261" x2="337" y2="261" stroke="#66bd63" stroke-width="2"/>
<text x="386" y="278.0" fill="#d73027" font-family="Verdana" font-size="12">0,N</text>
<line x1="209" y1="261" x2="337" y2="261" stroke="#66bd63" stroke-width="2"/>
<text x="265" y="278.0" fill="#d73027" font-family="Verdana" font-size="12">0,1</text>
<g id="association-OCCURS IN">
	<path d="M 366 236 a 14 14 90 0 1 14 14 V 261 h -86 V 250 a 14 14 90 0 1 14 -14" fill="#a6d96a" stroke="#a6d96a" stroke-width="0"/>
	<path d="M 380 261.0 v 11 a 14 14 90 0 1 -14 14 H 308 a 14 14 90 0 1 -14 -14 V 261.0 H 86" fill="#d9ef8b" stroke="#d9ef8b" stroke-width="0"/>
	<rect x="294" y="236" width="86" height="50" fill="none" rx="14" stroke="#66bd63" stroke-width="2"/>
	<line x1="294" y1="261" x2="380" y2="261" stroke="#66bd63" stroke-width="1"/>
	<text x="301" y="253.7" fill="#000000" font-family="Verdana" font-size="12">OCCURS IN</text>
</g>

<!-- Association TAKES -->
<line x1="209" y1="261" x2="209" y2="387" stroke="#66bd63" stroke-width="2"/>
<text x="214.0" y="337" fill="#d73027" font-family="Verdana" font-size="12">1,N</text>
<line x1="67" y1="387" x2="209" y2="387" stroke="#66bd63" stroke-width="2"/>
<text x="108" y="404.0" fill="#d73027" font-family="Verdana" font-size="12">0,N</text>
<g id="association-TAKES">
	<path d="M 223 362 a 14 14 90 0 1 14 14 V 387 h -56 V 376 a 14 14 90 0 1 14 -14" fill="#a6d96a" stroke="#a6d96a" stroke-width="0"/>
	<path d="M 237 387.0 v 11 a 14 14 90 0 1 -14 14 H 195 a 14 14 90 0 1 -14 -14 V 387.0 H 56" fill="#d9ef8b" stroke="#d9ef8b" stroke-width="0"/>
	<rect x="181" y="362" width="56" height="50" fill="none" rx="14" stroke="#66bd63" stroke-width="2"/>
	<line x1="181" y1="387" x2="237" y2="387" stroke="#66bd63" stroke-width="1"/>
	<text x="188" y="379.7" fill="#000000" font-family="Verdana" font-size="12">TAKES</text>
</g>

<!-- Association TAKES PLACE IN -->
<line x1="209" y1="261" x2="67" y2="261" stroke="#66bd63" stroke-width="2"/>
<text x="132" y="278.0" fill="#d73027" font-family="Verdana" font-size="12">0,1</text>
<line x1="67" y1="152" x2="67" y2="261" stroke="#66bd63" stroke-width="2"/>
<text x="72.0" y="203" fill="#d73027" font-family="Verdana" font-size="12">0,N</text>
<g id="association-TAKES PLACE IN">
	<path d="M 111 236 a 14 14 90 0 1 14 14 V 261 h -116 V 250 a 14 14 90 0 1 14 -14" fill="#a6d96a" stroke="#a6d96a" stroke-width="0"/>
	<path d="M 125 261.0 v 11 a 14 14 90 0 1 -14 14 H 23 a 14 14 90 0 1 -14 -14 V 261.0 H 116" fill="#d9ef8b" stroke="#d9ef8b" stroke-width="0"/>
	<rect x="9" y="236" width="116" height="50" fill="none" rx="14" stroke="#66bd63" stroke-width="2"/>
	<line x1="9" y1="261" x2="125" y2="261" stroke="#66bd63" stroke-width="1"/>
	<text x="16" y="253.7" fill="#000000" font-family="Verdana" font-size="12">TAKES PLACE IN</text>
</g>

<!-- Association COMES TO -->
<line x1="209" y1="51" x2="67" y2="51" stroke="#66bd63" stroke-width="2"/>
<text x="130" y="68.0" fill="#d73027" font-family="Verdana" font-size="12">1,N</text>
<line x1="67" y1="152" x2="67" y2="51" stroke="#66bd63" stroke-width="2"/>
<text x="72.0" y="110" fill="#d73027" font-family="Verdana" font-size="12">1,N</text>
<g id="association-COMES TO">
	<path d="M 93 26 a 14 14 90 0 1 14 14 V 51 h -80 V 40 a 14 14 90 0 1 14 -14" fill="#a6d96a" stroke="#a6d96a" stroke-width="0"/>
	<path d="M 107 51.0 v 11 a 14 14 90 0 1 -14 14 H 41 a 14 14 90 0 1 -14 -14 V 51.0 H 80" fill="#d9ef8b" stroke="#d9ef8b" stroke-width="0"/>
	<rect x="27" y="26" width="80" height="50" fill="none" rx="14" stroke="#66bd63" stroke-width="2"/>
	<line x1="27" y1="51" x2="107" y2="51" stroke="#66bd63" stroke-width="1"/>
	<text x="34" y="43.7" fill="#000000" font-family="Verdana" font-size="12">COMES TO</text>
</g>

<!-- Association HAS -->
<line x1="463" y1="261" x2="463" y2="152" stroke="#66bd63" stroke-width="2"/>
<text x="468.0" y="219" fill="#d73027" font-family="Verdana" font-size="12">1,N</text>
<line x1="463" y1="51" x2="463" y2="152" stroke="#66bd63" stroke-width="2"/>
<text x="468.0" y="110" fill="#d73027" font-family="Verdana" font-size="12">1,N</text>
<g id="association-HAS">
	<path d="M 469 127 a 14 14 90 0 1 14 14 V 152 h -40 V 141 a 14 14 90 0 1 14 -14" fill="#a6d96a" stroke="#a6d96a" stroke-width="0"/>
	<path d="M 483 152.0 v 11 a 14 14 90 0 1 -14 14 H 457 a 14 14 90 0 1 -14 -14 V 152.0 H 40" fill="#d9ef8b" stroke="#d9ef8b" stroke-width="0"/>
	<rect x="443" y="127" width="40" height="50" fill="none" rx="14" stroke="#66bd63" stroke-width="2"/>
	<line x1="443" y1="152" x2="483" y2="152" stroke="#66bd63" stroke-width="1"/>
	<text x="450" y="144.7" fill="#000000" font-family="Verdana" font-size="12">HAS</text>
</g>

<!-- Association OPENS -->
<line x1="337" y1="387" x2="463" y2="387" stroke="#66bd63" stroke-width="2"/>
<text x="388" y="404.0" fill="#d73027" font-family="Verdana" font-size="12">1,N</text>
<line x1="463" y1="261" x2="463" y2="387" stroke="#66bd63" stroke-width="2"/>
<text x="468.0" y="312" fill="#d73027" font-family="Verdana" font-size="12">1,1</text>
<g id="association-OPENS">
	<path d="M 477 362 a 14 14 90 0 1 14 14 V 387 h -56 V 376 a 14 14 90 0 1 14 -14" fill="#a6d96a" stroke="#a6d96a" stroke-width="0"/>
	<path d="M 491 387.0 v 11 a 14 14 90 0 1 -14 14 H 449 a 14 14 90 0 1 -14 -14 V 387.0 H 56" fill="#d9ef8b" stroke="#d9ef8b" stroke-width="0"/>
	<rect x="435" y="362" width="56" height="50" fill="none" rx="14" stroke="#66bd63" stroke-width="2"/>
	<line x1="435" y1="387" x2="491" y2="387" stroke="#66bd63" stroke-width="1"/>
	<text x="442" y="379.7" fill="#000000" font-family="Verdana" font-size="12">OPENS</text>
</g>

<!-- Association WELCOMES -->
<line x1="463" y1="51" x2="337" y2="51" stroke="#66bd63" stroke-width="2"/>
<text x="403" y="68.0" fill="#d73027" font-family="Verdana" font-size="12">1,N</text>
<line x1="209" y1="51" x2="337" y2="51" stroke="#66bd63" stroke-width="2"/>
<text x="266" y="68.0" fill="#d73027" font-family="Verdana" font-size="12">1,1</text>
<g id="association-WELCOMES">
	<path d="M 366 26 a 14 14 90 0 1 14 14 V 51 h -86 V 40 a 14 14 90 0 1 14 -14" fill="#a6d96a" stroke="#a6d96a" stroke-width="0"/>
	<path d="M 380 51.0 v 11 a 14 14 90 0 1 -14 14 H 308 a 14 14 90 0 1 -14 -14 V 51.0 H 86" fill="#d9ef8b" stroke="#d9ef8b" stroke-width="0"/>
	<rect x="294" y="26" width="86" height="50" fill="none" rx="14" stroke="#66bd63" stroke-width="2"/>
	<line x1="294" y1="51" x2="380" y2="51" stroke="#66bd63" stroke-width="1"/>
	<text x="301" y="43.7" fill="#000000" font-family="Verdana" font-size="12">WELCOMES</text>
</g>

<!-- Entity TOWN -->
<g id="entity-TOWN">
	<g id="frame-TOWN">
		<rect x="430" y="9" width="66" height="25" fill="#fdae61" stroke="#fdae61" stroke-width="0"/>
		<rect x="430" y="34.0" width="66" height="59" fill="#fee08b" stroke="#fee08b" stroke-width="0"/>
		<rect x="430" y="9" width="66" height="84" fill="none" stroke="#f46d43" stroke-width="2"/>
		<line x1="430" y1="34" x2="496" y2="34" stroke="#f46d43" stroke-width="1"/>
	</g>
	<text x="443" y="26.7" fill="#000000" font-family="Verdana" font-size="12">TOWN</text>
	<text x="435" y="51.8" fill="#000000" font-family="Verdana" font-size="12">id town</text>
	<line x1="435" y1="54" x2="480" y2="54" stroke="#000000" stroke-width="1"/>
	<text x="435" y="68.8" fill="#000000" font-family="Verdana" font-size="12">name</text>
	<text x="435" y="85.8" fill="#000000" font-family="Verdana" font-size="12">postcode</text>
</g>

<!-- Entity APPOINTMENT -->
<g id="entity-APPOINTMENT">
	<g id="frame-APPOINTMENT">
		<rect x="158" y="202" width="102" height="25" fill="#fdae61" stroke="#fdae61" stroke-width="0"/>
		<rect x="158" y="227.0" width="102" height="93" fill="#fee08b" stroke="#fee08b" stroke-width="0"/>
		<rect x="158" y="202" width="102" height="118" fill="none" stroke="#f46d43" stroke-width="2"/>
		<line x1="158" y1="227" x2="260" y2="227" stroke="#f46d43" stroke-width="1"/>
	</g>
	<text x="164" y="219.7" fill="#000000" font-family="Verdana" font-size="12">APPOINTMENT</text>
	<text x="163" y="244.7" fill="#000000" font-family="Verdana" font-size="12">id appointment</text>
	<line x1="163" y1="247" x2="255" y2="247" stroke="#000000" stroke-width="1"/>
	<text x="163" y="261.8" fill="#000000" font-family="Verdana" font-size="12">beginning</text>
	<text x="163" y="278.8" fill="#000000" font-family="Verdana" font-size="12">end</text>
	<text x="163" y="295.8" fill="#000000" font-family="Verdana" font-size="12">grouped</text>
	<text x="163" y="312.8" fill="#000000" font-family="Verdana" font-size="12">capacity</text>
</g>

<!-- Entity PERMANENCE -->
<g id="entity-PERMANENCE">
	<g id="frame-PERMANENCE">
		<rect x="413" y="227" width="100" height="25" fill="#fdae61" stroke="#fdae61" stroke-width="0"/>
		<rect x="413" y="252.0" width="100" height="43" fill="#fee08b" stroke="#fee08b" stroke-width="0"/>
		<rect x="413" y="227" width="100" height="68" fill="none" stroke="#f46d43" stroke-width="2"/>
		<line x1="413" y1="252" x2="513" y2="252" stroke="#f46d43" stroke-width="1"/>
	</g>
	<text x="421" y="244.7" fill="#000000" font-family="Verdana" font-size="12">PERMANENCE</text>
	<text x="418" y="269.8" fill="#000000" font-family="Verdana" font-size="12">id permanence</text>
	<line x1="418" y1="272" x2="508" y2="272" stroke="#000000" stroke-width="1"/>
	<text x="418" y="286.8" fill="#000000" font-family="Verdana" font-size="12">name</text>
</g>

<!-- Entity CARAVAN -->
<g id="entity-CARAVAN">
	<g id="frame-CARAVAN">
		<rect x="30" y="118" width="74" height="25" fill="#fdae61" stroke="#fdae61" stroke-width="0"/>
		<rect x="30" y="143.0" width="74" height="43" fill="#fee08b" stroke="#fee08b" stroke-width="0"/>
		<rect x="30" y="118" width="74" height="68" fill="none" stroke="#f46d43" stroke-width="2"/>
		<line x1="30" y1="143" x2="104" y2="143" stroke="#f46d43" stroke-width="1"/>
	</g>
	<text x="37" y="135.7" fill="#000000" font-family="Verdana" font-size="12">CARAVAN</text>
	<text x="35" y="160.8" fill="#000000" font-family="Verdana" font-size="12">id caravan</text>
	<line x1="35" y1="163" x2="99" y2="163" stroke="#000000" stroke-width="1"/>
	<text x="35" y="177.8" fill="#000000" font-family="Verdana" font-size="12">name</text>
</g>

<!-- Entity SUPPORT -->
<g id="entity-SUPPORT">
	<g id="frame-SUPPORT">
		<rect x="293" y="118" width="88" height="25" fill="#fdae61" stroke="#fdae61" stroke-width="0"/>
		<rect x="293" y="143.0" width="88" height="43" fill="#fee08b" stroke="#fee08b" stroke-width="0"/>
		<rect x="293" y="118" width="88" height="68" fill="none" stroke="#f46d43" stroke-width="2"/>
		<line x1="293" y1="143" x2="381" y2="143" stroke="#f46d43" stroke-width="1"/>
	</g>
	<text x="308" y="135.7" fill="#000000" font-family="Verdana" font-size="12">SUPPORT</text>
	<text x="298" y="160.8" fill="#000000" font-family="Verdana" font-size="12">id support</text>
	<line x1="298" y1="163" x2="360" y2="163" stroke="#000000" stroke-width="1"/>
	<text x="298" y="177.8" fill="#000000" font-family="Verdana" font-size="12">type support</text>
</g>

<!-- Entity USER -->
<g id="entity-USER">
	<g id="frame-USER">
		<rect x="31" y="336" width="72" height="25" fill="#fdae61" stroke="#fdae61" stroke-width="0"/>
		<rect x="31" y="361.0" width="72" height="77" fill="#fee08b" stroke="#fee08b" stroke-width="0"/>
		<rect x="31" y="336" width="72" height="102" fill="none" stroke="#f46d43" stroke-width="2"/>
		<line x1="31" y1="361" x2="103" y2="361" stroke="#f46d43" stroke-width="1"/>
	</g>
	<text x="50" y="353.7" fill="#000000" font-family="Verdana" font-size="12">USER</text>
	<text x="36" y="378.7" fill="#000000" font-family="Verdana" font-size="12">email</text>
	<line x1="36" y1="381" x2="70" y2="381" stroke="#000000" stroke-width="1"/>
	<text x="36" y="395.8" fill="#000000" font-family="Verdana" font-size="12">password</text>
	<text x="36" y="412.8" fill="#000000" font-family="Verdana" font-size="12">first name</text>
	<text x="36" y="429.8" fill="#000000" font-family="Verdana" font-size="12">last name</text>
</g>

<!-- Entity TIME RANGE -->
<g id="entity-TIME RANGE">
	<g id="frame-TIME RANGE">
		<rect x="291" y="345" width="92" height="25" fill="#fdae61" stroke="#fdae61" stroke-width="0"/>
		<rect x="291" y="370.0" width="92" height="59" fill="#fee08b" stroke="#fee08b" stroke-width="0"/>
		<rect x="291" y="345" width="92" height="84" fill="none" stroke="#f46d43" stroke-width="2"/>
		<line x1="291" y1="370" x2="383" y2="370" stroke="#f46d43" stroke-width="1"/>
	</g>
	<text x="298" y="362.7" fill="#000000" font-family="Verdana" font-size="12">TIME RANGE</text>
	<text x="296" y="387.8" fill="#000000" font-family="Verdana" font-size="12">id time range</text>
	<line x1="296" y1="390" x2="378" y2="390" stroke="#000000" stroke-width="1"/>
	<text x="296" y="404.8" fill="#000000" font-family="Verdana" font-size="12">opening time</text>
	<text x="296" y="421.8" fill="#000000" font-family="Verdana" font-size="12">closing time</text>
</g>

<!-- Entity STRUCTURE -->
<g id="entity-STRUCTURE">
	<g id="frame-STRUCTURE">
		<rect x="546" y="353" width="96" height="25" fill="#fdae61" stroke="#fdae61" stroke-width="0"/>
		<rect x="546" y="378.0" width="96" height="43" fill="#fee08b" stroke="#fee08b" stroke-width="0"/>
		<rect x="546" y="353" width="96" height="68" fill="none" stroke="#f46d43" stroke-width="2"/>
		<line x1="546" y1="378" x2="642" y2="378" stroke="#f46d43" stroke-width="1"/>
	</g>
	<text x="557" y="370.7" fill="#000000" font-family="Verdana" font-size="12">STRUCTURE</text>
	<text x="551" y="395.8" fill="#000000" font-family="Verdana" font-size="12">id structure</text>
	<line x1="551" y1="398" x2="622" y2="398" stroke="#000000" stroke-width="1"/>
	<text x="551" y="412.8" fill="#000000" font-family="Verdana" font-size="12">type structure</text>
</g>

<!-- Entity INTERVENTION -->
<g id="entity-INTERVENTION">
	<g id="frame-INTERVENTION">
		<rect x="157" y="9" width="104" height="25" fill="#fdae61" stroke="#fdae61" stroke-width="0"/>
		<rect x="157" y="34.0" width="104" height="59" fill="#fee08b" stroke="#fee08b" stroke-width="0"/>
		<rect x="157" y="9" width="104" height="84" fill="none" stroke="#f46d43" stroke-width="2"/>
		<line x1="157" y1="34" x2="261" y2="34" stroke="#f46d43" stroke-width="1"/>
	</g>
	<text x="162" y="26.7" fill="#000000" font-family="Verdana" font-size="12">INTERVENTION</text>
	<text x="162" y="51.8" fill="#000000" font-family="Verdana" font-size="12">id period</text>
	<line x1="162" y1="54" x2="216" y2="54" stroke="#000000" stroke-width="1"/>
	<text x="162" y="68.8" fill="#000000" font-family="Verdana" font-size="12">arriving time</text>
	<text x="162" y="85.8" fill="#000000" font-family="Verdana" font-size="12">leaving time</text>
</g>
</svg>